# File created by Blade
# Date/Time:  Mon Sep 22 16:09:39 2014
# Frame Rate: 120.000 fps
#------------------------------------------------------
:FULLY-SPECIFIED
:DEGREES
3234
root 2.534233 36.897408 4.240551 6.252822 -7.901214 2.143374
RightUpLeg 4.283557 -0.976678 -3.388024
RightLeg -5.748355 -0.000000 0.000000
RightFoot -14.612552 -15.986976 16.359196
RightToeBase 13.665457 -0.000000 -0.000000
LeftUpLeg 4.224407 6.179964 0.638467
LeftLeg -4.389925 -0.000000 0.000000
LeftFoot -10.855548 12.941836 -18.299894
LeftToeBase 7.565233 -0.000000 -0.000000
Spine -11.730154 -26.021201 3.890706
RightShoulder -13.996009 -21.543683 -2.338640
RightArm 4.363068 52.950966 87.398403
RightForeArm 88.159622 -0.000000 93.521568
RightHand 21.147913 -0.000000 -29.453703
RightHandThumb1 -24.326973 -0.000000 -32.862282
LeftShoulder -28.830364 39.946447 -7.555109
LeftArm 42.191911 25.893633 -65.056261
LeftForeArm 22.158952 -0.000000 24.271154
LeftHand -11.593627 -0.000000 -13.344006
LeftHandThumb1 -26.253704 0.000000 33.147579
Head 15.853192 15.248615 8.187961
3235
root 2.541923 36.897327 4.240840 6.265541 -7.766219 2.167035
RightUpLeg 4.281244 -0.988818 -3.405227
RightLeg -5.729721 -0.000000 0.000000
RightFoot -14.653087 -16.114786 16.336452
RightToeBase 13.644897 -0.000000 -0.000000
LeftUpLeg 4.211904 6.122713 0.619884
LeftLeg -4.432559 -0.000000 0.000000
LeftFoot -10.800430 12.870645 -18.290614
LeftToeBase 7.546977 -0.000000 -0.000000
Spine -11.755135 -26.084539 3.902458
RightShoulder -13.983860 -21.468222 -2.386983
RightArm 4.321913 52.968156 87.372330
RightForeArm 88.364425 0.000000 93.581387
RightHand 20.725685 -0.000000 -29.461957
RightHandThumb1 -24.326973 -0.000000 -32.862282
LeftShoulder -28.729733 39.931080 -7.508634
LeftArm 42.383415 26.139806 -64.845512
LeftForeArm 22.376723 0.000000 24.282646
LeftHand -11.707039 -0.000000 -13.575384
LeftHandThumb1 -26.253704 0.000000 33.147579
Head 15.820841 15.136998 8.133729
3236
root 2.549615 36.897893 4.245140 6.251481 -7.647533 2.182040
RightUpLeg 4.321943 -1.004288 -3.417757
RightLeg -5.734723 -0.000000 0.000000
RightFoot -14.677841 -16.197336 16.396722
RightToeBase 13.591254 -0.000000 -0.000000
LeftUpLeg 4.236240 6.076239 0.609603
LeftLeg -4.476284 -0.000000 0.000000
LeftFoot -10.753842 12.803584 -18.302933
LeftToeBase 7.552249 -0.000000 -0.000000
Spine -11.751955 -26.142687 3.915114
RightShoulder -13.964161 -21.424588 -2.407205
RightArm 4.437197 53.000896 87.456000
RightForeArm 88.360005 -0.000000 93.630849
RightHand 21.101193 -0.000000 -29.689740
RightHandThumb1 -24.326973 -0.000000 -32.862282
LeftShoulder -28.635105 39.887897 -7.464483
LeftArm 42.520689 26.374739 -64.670721
LeftForeArm 22.535415 -0.000000 24.328645
LeftHand -11.742343 -0.000000 -13.474029
LeftHandThumb1 -26.253704 0.000000 33.147579
Head 15.789680 15.032294 8.069140
3237
root 2.556456 36.898224 4.246551 6.251076 -7.529502 2.191040
RightUpLeg 4.336152 -1.028737 -3.422115
RightLeg -5.720195 -0.000000 0.000000
RightFoot -14.720886 -16.273391 16.412594
RightToeBase 13.628914 -0.000000 -0.000000
LeftUpLeg 4.228026 5.991547 0.596166
LeftLeg -4.493555 -0.000000 0.000000
LeftFoot -10.732255 12.816573 -18.263542
LeftToeBase 7.525350 -0.000000 -0.000000
Spine -11.758185 -26.188070 3.936721
RightShoulder -13.941985 -21.382608 -2.429451
RightArm 4.466949 53.028867 87.470226
RightForeArm 88.271218 -0.000000 93.648373
RightHand 21.729659 -0.000000 -29.228060
RightHandThumb1 -24.326973 -0.000000 -32.862282
LeftShoulder -28.544473 39.862524 -7.423951
LeftArm 42.633985 26.533843 -64.558212
LeftForeArm 22.697967 -0.000000 24.382600
LeftHand -11.662148 -0.000000 -13.512658
LeftHandThumb1 -26.253704 0.000000 33.147579
Head 15.746579 14.942613 8.010740
3238
root 2.563856 36.899182 4.246853 6.257207 -7.430558 2.204099
RightUpLeg 4.338542 -1.044448 -3.431694
RightLeg -5.712362 -0.000000 0.000000
RightFoot -14.733275 -16.348681 16.424614
RightToeBase 13.576517 -0.000000 -0.000000
LeftUpLeg 4.212589 5.948400 0.582167
LeftLeg -4.502803 -0.000000 0.000000
LeftFoot -10.694390 12.776103 -18.227369
LeftToeBase 7.492113 -0.000000 -0.000000
Spine -11.767699 -26.212249 3.951075
RightShoulder -13.919470 -21.342469 -2.435644
RightArm 4.593136 53.286827 87.599014
RightForeArm 88.079572 -0.000000 93.737691
RightHand 21.722142 -0.000000 -29.569063
RightHandThumb1 -24.326973 -0.000000 -32.862282
LeftShoulder -28.463672 39.845704 -7.391720
LeftArm 42.740924 26.679808 -64.448929
LeftForeArm 22.850366 -0.000000 24.496710
LeftHand -11.749262 -0.000000 -13.649699
LeftHandThumb1 -26.253704 0.000000 33.147579
Head 15.695425 14.844559 7.958632
3239
root 2.571081 36.900014 4.247003 6.269123 -7.347250 2.219922
RightUpLeg 4.331011 -1.066287 -3.446378
RightLeg -5.699470 -0.000000 0.000000
RightFoot -14.718601 -16.433410 16.388179
RightToeBase 13.513363 -0.000000 -0.000000
LeftUpLeg 4.192338 5.881149 0.570623
LeftLeg -4.509077 -0.000000 0.000000
LeftFoot -10.675987 12.717321 -18.265539
LeftToeBase 7.514784 -0.000000 -0.000000
Spine -11.787822 -26.229247 3.966405
RightShoulder -13.898970 -21.311820 -2.439384
RightArm 4.722843 53.317769 87.724812
RightForeArm 87.889145 0.000000 93.785319
RightHand 20.468257 0.000000 -29.195777
RightHandThumb1 -24.326973 -0.000000 -32.862282
LeftShoulder -28.408580 39.849037 -7.370440
LeftArm 42.832640 26.792159 -64.376382
LeftForeArm 22.911567 0.000000 24.627176
LeftHand -11.620559 0.000000 -13.602618
LeftHandThumb1 -26.253704 0.000000 33.147579
Head 15.644554 14.770897 7.911100
